<?xml version="1.0" encoding="UTF-8" standalone="no"?>
<svg
   xmlns:dc="http://purl.org/dc/elements/1.1/"
   xmlns:cc="http://creativecommons.org/ns#"
   xmlns:rdf="http://www.w3.org/1999/02/22-rdf-syntax-ns#"
   xmlns:svg="http://www.w3.org/2000/svg"
   xmlns="http://www.w3.org/2000/svg"
   xmlns:sodipodi="http://sodipodi.sourceforge.net/DTD/sodipodi-0.dtd"
   xmlns:inkscape="http://www.inkscape.org/namespaces/inkscape"
   width="256px"
   height="256px"
   viewBox="0 0 256 256"
   version="1.1"
   id="svg6"
   sodipodi:docname="hashnode-icon.svg"
   inkscape:version="0.92.4 (5da689c313, 2019-01-14)">
  <metadata
     id="metadata12">
    <rdf:RDF>
      <cc:Work
         rdf:about="">
        <dc:format>image/svg+xml</dc:format>
        <dc:type
           rdf:resource="http://purl.org/dc/dcmitype/StillImage" />
        <dc:title></dc:title>
      </cc:Work>
    </rdf:RDF>
  </metadata>
  <defs
     id="defs10" />
  <sodipodi:namedview
     pagecolor="#ffffff"
     bordercolor="#666666"
     borderopacity="1"
     objecttolerance="10"
     gridtolerance="10"
     guidetolerance="10"
     inkscape:pageopacity="0"
     inkscape:pageshadow="2"
     inkscape:window-width="2005"
     inkscape:window-height="1240"
     id="namedview8"
     showgrid="false"
     inkscape:zoom="0.921875"
     inkscape:cx="128"
     inkscape:cy="128"
     inkscape:window-x="0"
     inkscape:window-y="40"
     inkscape:window-maximized="0"
     inkscape:current-layer="svg6" />
  <g
     fill-rule="evenodd"
     id="g4"
     style="fill:#000000;fill-opacity:1">
    <path
       d="M17.5913461,85.5328619 C-5.86378203,108.98799 -5.86378203,147.01185 17.5913461,170.464766 L85.5337714,238.409404 C108.9889,261.862319 147.01276,261.862319 170.465675,238.409404 L238.410313,170.464766 C261.863229,147.009638 261.863229,108.985777 238.410313,85.5328619 L170.465675,17.5904365 C147.010547,-5.86247884 108.986687,-5.86247884 85.5337714,17.5904365 L17.5913461,85.5328619 Z M157.724673,157.725976 C174.143262,141.307386 174.143262,114.690241 157.724673,98.2738645 C141.308296,81.8552748 114.691151,81.8552748 98.274774,98.2738645 C81.8561843,114.692454 81.8561843,141.307386 98.274774,157.725976 C114.693364,174.142353 141.308296,174.142353 157.726886,157.725976 L157.724673,157.725976 Z"
       fill="#2962FF"
       id="path2"
       style="fill:#000000;fill-opacity:1" />
  </g>
</svg>
