<?xml version="1.0" encoding="UTF-8" standalone="no"?>
<svg
   xmlns:dc="http://purl.org/dc/elements/1.1/"
   xmlns:cc="http://creativecommons.org/ns#"
   xmlns:rdf="http://www.w3.org/1999/02/22-rdf-syntax-ns#"
   xmlns:svg="http://www.w3.org/2000/svg"
   xmlns="http://www.w3.org/2000/svg"
   id="svg18"
   viewBox="0 0 251.00211 426.2215"
   version="1.1"
   height="426.2215pt"
   width="251.00211pt">
  <metadata
     id="metadata24">
    <rdf:RDF>
      <cc:Work
         rdf:about="">
        <dc:format>image/svg+xml</dc:format>
        <dc:type
           rdf:resource="http://purl.org/dc/dcmitype/StillImage" />
        <dc:title></dc:title>
      </cc:Work>
    </rdf:RDF>
  </metadata>
  <defs
     id="defs22" />
  <g
     transform="translate(-250.5006,-162.8906)"
     id="g16">
    <path
       id="path2"
       d="m 376,252.87 c -20.891,0 -37.887,16.996 -37.887,37.887 0,5.2266 4.2422,9.4727 9.4727,9.4727 5.2266,0 9.4727,-4.2422 9.4727,-9.4727 0,-10.445 8.4961,-18.941 18.941,-18.941 5.2266,0 9.4727,-4.2422 9.4727,-9.4727 0,-5.2305 -4.2422,-9.4727 -9.4727,-9.4727 z" />
    <path
       id="path4"
       d="m 451.77,366.53 h -9.4727 l 0.004,-75.773 c 0,-36.559 -29.742,-66.301 -66.301,-66.301 -36.559,0 -66.301,29.742 -66.301,66.301 v 75.773 h -9.4727 c -5.2266,0 -9.4727,4.2422 -9.4727,9.4727 v 28.414 c 0,5.2266 4.2422,9.4727 9.4727,9.4727 h 33.152 v 165.75 c 0,5.2266 4.2422,9.4727 9.4727,9.4727 5.2266,0 9.4727,-4.2422 9.4727,-9.4727 l -0.004,-165.76 h 47.359 v 108.92 c 0,5.2266 4.2422,9.4727 9.4727,9.4727 5.2266,0 9.4727,-4.2422 9.4727,-9.4727 l -0.004,-108.92 h 33.152 c 5.2266,0 9.4727,-4.2422 9.4727,-9.4727 v -28.414 c -0.004,-5.2266 -4.2461,-9.4688 -9.4766,-9.4688 z M 328.64,290.757 c 0,-26.113 21.246,-47.359 47.359,-47.359 26.113,0 47.359,21.246 47.359,47.359 V 366.53 H 328.639 Z M 442.3,394.947 H 309.69 v -9.4727 H 442.3 Z" />
    <path
       id="path6"
       d="m 376,210.25 c 5.2266,0 9.4727,-4.2422 9.4727,-9.4727 v -28.414 c 0,-5.2266 -4.2422,-9.4727 -9.4727,-9.4727 -5.2266,0 -9.4727,4.2422 -9.4727,9.4727 v 28.414 c 0.004,5.2266 4.2461,9.4727 9.4727,9.4727 z" />
    <path
       id="path8"
       d="m 437.95,235.91 c 2.4258,0 4.8438,-0.92188 6.6953,-2.7734 l 20.094,-20.094 c 3.6992,-3.6992 3.6992,-9.6953 0,-13.395 -3.6992,-3.6997 -9.6953,-3.6992 -13.395,0 l -20.094,20.094 c -3.6992,3.6992 -3.6992,9.6953 0,13.395 1.8555,1.8516 4.2773,2.7734 6.6992,2.7734 z" />
    <path
       id="path10"
       d="m 307.35,233.14 c 1.8477,1.8516 4.2734,2.7734 6.6953,2.7734 2.4258,0 4.8438,-0.92188 6.6953,-2.7734 3.6992,-3.6992 3.6992,-9.6953 0,-13.395 l -20.094,-20.094 c -3.6953,-3.6992 -9.6953,-3.6992 -13.395,0 -3.6992,3.6992 -3.6992,9.6953 0,13.395 z" />
    <path
       id="path12"
       d="m 492.03,278.92 h -28.414 c -5.2266,0 -9.4727,4.2422 -9.4727,9.4727 0,5.2266 4.2422,9.4727 9.4727,9.4727 h 28.414 c 5.2266,0 9.4727,-4.2422 9.4727,-9.4727 0,-5.2305 -4.2422,-9.4727 -9.4727,-9.4727 z" />
    <path
       id="path14"
       d="m 297.86,288.39 c 0,-5.2266 -4.2422,-9.4727 -9.4727,-9.4727 h -28.414 c -5.2266,0 -9.4727,4.2422 -9.4727,9.4727 0,5.2266 4.2422,9.4727 9.4727,9.4727 h 28.414 c 5.2305,-0.004 9.4727,-4.2461 9.4727,-9.4727 z" />
  </g>
</svg>
