<svg fill="none" height="1280" viewBox="0 0 1280 1280" width="1280" xmlns="http://www.w3.org/2000/svg" xmlns:xlink="http://www.w3.org/1999/xlink"><linearGradient id="a" gradientUnits="userSpaceOnUse" x1="882.997" x2="638.955" y1="27.1132" y2="866.902"><stop offset="0" stop-color="#000014"/><stop offset="1" stop-color="#150426"/></linearGradient><linearGradient id="b" gradientUnits="userSpaceOnUse" x1="1001.68" x2="790.326" y1="652.45" y2="1094.91"><stop offset="0" stop-color="#ff1639"/><stop offset="1" stop-color="#ff1639" stop-opacity="0"/></linearGradient><g clip-rule="evenodd" fill-rule="evenodd"><path d="m815.039 94.6439c9.719 12.0651 14.675 28.3461 24.587 60.9091l216.544 711.348c-80.063-41.533-167.098-71.488-258.889-87.649l-140.991-476.454c-2.307-7.796-9.468-13.144-17.597-13.144-8.151 0-15.325 5.376-17.613 13.199l-139.285 476.158c-92.216 16.089-179.649 46.098-260.054 87.782l217.606-711.405h.001c9.943-32.506 14.914-48.759 24.634-60.8027 8.58-10.6322 19.741-18.8895 32.418-23.9851 14.36-5.7718 31.356-5.7718 65.349-5.7718h155.425c34.038 0 51.056 0 65.429 5.7839 12.689 5.1061 23.856 13.38 32.436 24.0316z" fill="url(#a)"/><path d="m840.951 900.754c-35.698 30.525-106.949 51.343-189.022 51.343-100.732 0-185.162-31.36-207.566-73.536-8.009 24.171-9.805 51.835-9.805 69.507 0 0-5.277 86.772 55.078 147.132 0-31.34 25.406-56.74 56.745-56.74 53.716 0 53.655 46.86 53.606 84.88-.001 1.14-.003 2.27-.003 3.39 0 57.71 35.271 107.18 85.432 128.04-7.492-15.41-11.695-32.72-11.695-51 0-55.04 32.313-75.54 69.867-99.36 29.881-18.95 63.08-40 85.96-82.24 11.938-22.04 18.717-47.277 18.717-74.102 0-16.495-2.563-32.392-7.314-47.314z" fill="#ff5d01"/><path d="m840.951 900.754c-35.698 30.525-106.949 51.343-189.022 51.343-100.732 0-185.162-31.36-207.566-73.536-8.009 24.171-9.805 51.835-9.805 69.507 0 0-5.277 86.772 55.078 147.132 0-31.34 25.406-56.74 56.745-56.74 53.716 0 53.655 46.86 53.606 84.88-.001 1.14-.003 2.27-.003 3.39 0 57.71 35.271 107.18 85.432 128.04-7.492-15.41-11.695-32.72-11.695-51 0-55.04 32.313-75.54 69.867-99.36 29.881-18.95 63.08-40 85.96-82.24 11.938-22.04 18.717-47.277 18.717-74.102 0-16.495-2.563-32.392-7.314-47.314z" fill="url(#b)"/></g></svg>