<svg xmlns="http://www.w3.org/2000/svg" width="1000" height="1000" viewBox="0 0 1000 1000" role="img" aria-labelledby="css-logo-title css-logo-description">
  <title id="css-logo-title">CSS Logo</title>
  <desc id="css-logo-description">A purple square with rounded corners and the letters CSS inside in white</desc>
  <path fill="#639" d="M0 0H840A160 160 0 0 1 1000 160V840A160 160 0 0 1 840 1000H160A160 160 0 0 1 0 840V0Z"/>
  <path fill="#fff" d="M817 920c-70 0-101-44-102-112h70c0 31 11 49 33 49 11 0 19-3 23-10 9-13 11-49-2-63-12-17-37-25-55-34-23-11-40-24-50-39s-15-37-15-64c-1-60 38-103 100-102 66 0 96 45 97 110h-67c0-12-2-25-7-35-4-8-11-11-22-11-20 0-30 11-30 35s12 37 33 45c29 12 67 31 80 54 11 18 17 41 17 69 1 67-37 108-103 108Zm-226 0c-69 0-100-43-101-112h70c0 33 11 49 33 49 11 0 19-3 23-10 8-13 10-49-2-63-13-17-38-25-55-34-23-11-40-24-51-39-10-15-15-37-15-64 0-60 39-103 101-102 65 0 95 45 96 110h-67c1-12-2-25-6-35-4-8-12-11-23-11-19 0-29 11-29 35-1 24 12 37 32 45 30 12 67 31 80 54 12 18 18 41 18 69 0 67-38 108-104 108Zm-235 0c-64 0-104-36-103-103V649c0-34 10-60 29-77 36-34 119-36 154 0 18 18 28 47 27 83h-74c1-19-4-33-18-40-13-6-32-2-37 10-5 11-8 24-7 36v146c0 31 11 47 32 47 10 0 18-4 23-11 7-10 8-23 7-35h74c4 68-41 113-107 112Z"/>
</svg>
